<svg xmlns="http://www.w3.org/2000/svg" height="48" viewBox="0 -960 960 960" width="48"><path fill="#fff" d="m375.087-62.804-21-130.718q-15.522-5.521-34.24-16.031-18.718-10.51-32.369-21.534L165-175.609 58.848-364.957l109.956-81.403q-1-6.283-1.38-16.799-.381-10.515-.381-18.482 0-7.099.381-16.688.38-9.59 1.38-17.758L58.848-597.043 165-785.152l121.435 55.478q13.016-10.152 32.312-21.239 19.296-11.087 35.34-16.609l21-130.674h210.826l20 130.435q16.522 5.522 36.065 16.663 19.544 11.141 32.065 21.424l122.196-55.478 105.913 188.109-111.956 79.478q1 8.654 2.119 19.282 1.12 10.628 1.12 18.283 0 7.655-1.12 17.783-1.119 10.128-1.358 17.782l110.434 79.478L795-175.609l-122.478-55.478q-13.283 10.522-31.924 21.783-18.641 11.261-33.685 15.782l-21 130.718H375.087ZM479-340.826q58.116 0 99.025-40.868 40.91-40.868 40.91-98.925 0-57.829-40.91-98.953-40.909-41.124-99.025-41.124-58.565 0-99.25 40.983-40.685 40.982-40.685 98.811 0 58.057 40.685 99.066 40.685 41.01 99.25 41.01ZM478.382-410Q449-410 428.62-430.826q-20.381-20.826-20.381-50.053 0-29.226 20.586-49.934 20.587-20.709 49.881-20.709 29.055 0 50.055 20.826t21 50.053q0 29.226-21.118 49.935Q507.526-410 478.382-410Zm1.857-70.761Zm-42.087 340.652h83.944l14.241-112.521q33.989-8.24 64.008-25.185 30.018-16.945 55.163-42.294l105.057 46.239 37.848-68.891-93-68.522q4.239-16.875 7.239-34.265 3-17.391 3-35.302t-2.619-34.77q-2.62-16.858-6.62-34.38l92.239-68-37.326-68.891-105.956 45.478q-23.044-26.478-53.237-45.012t-66.448-23.466l-12.837-110.761h-85.696l-13 110.761q-35.761 7.761-66.5 25.38-30.739 17.62-53.978 42.859l-103.717-45.239L160.826-618l92.761 68.283q-4.239 17.76-6.739 34.619-2.5 16.859-2.5 34.076 0 17.218 2.5 34.457t6.739 35.282l-92.761 68.522 38.848 68.891 104.761-46.239q25.761 26.239 56 43.479 30.239 17.239 63.717 25l14 111.521Z"/></svg>